<?xml version="1.0" standalone="no"?>
<!DOCTYPE svg PUBLIC "-//W3C//DTD SVG 20010904//EN"
 "http://www.w3.org/TR/2001/REC-SVG-20010904/DTD/svg10.dtd">
<svg version="1.0" xmlns="http://www.w3.org/2000/svg"
 width="1000.000000pt" height="1000.000000pt" viewBox="0 0 1000.000000 1000.000000"
 preserveAspectRatio="xMidYMid meet">

<g transform="translate(0.000000,1000.000000) scale(0.100000,-0.100000)"
fill="#000000" stroke="none">
<path d="M4807 8224 c-4 -4 -29 -6 -55 -5 -38 1 -53 -3 -68 -20 -10 -12 -40
-39 -66 -61 l-47 -39 -41 32 c-35 29 -47 32 -108 34 -38 1 -73 5 -79 8 -23 15
-63 -13 -92 -65 -17 -29 -32 -57 -34 -62 -2 -5 -24 5 -50 22 -64 44 -95 49
-132 21 -16 -13 -44 -24 -62 -25 -19 0 -41 -8 -49 -16 -11 -11 -28 -14 -58
-11 -38 5 -45 2 -64 -22 -12 -15 -22 -31 -22 -35 0 -4 -7 -24 -15 -43 l-15
-36 -64 30 c-73 34 -103 30 -132 -20 -11 -19 -27 -31 -39 -31 -12 0 -30 -7
-41 -15 -10 -8 -40 -15 -65 -15 -26 0 -51 -6 -56 -12 -13 -18 -33 -90 -33
-121 0 -14 -4 -28 -8 -31 -4 -2 -35 4 -67 15 -73 24 -100 19 -126 -26 -11 -18
-33 -38 -50 -44 -34 -12 -43 -32 -62 -141 -8 -44 -17 -83 -19 -86 -3 -3 -48 3
-101 12 -145 26 -159 17 -184 -111 -25 -132 -16 -155 67 -174 81 -18 314 -61
370 -67 l56 -6 -13 -72 c-23 -122 -24 -122 -33 -106 -4 8 -11 41 -15 73 -8 67
-32 97 -79 97 -39 0 -632 -74 -687 -86 -38 -7 -63 -39 -62 -77 2 -92 86 -692
99 -712 20 -31 48 -36 135 -26 41 6 76 7 79 4 3 -3 1 -7 -5 -9 -5 -2 -50 -23
-98 -47 l-88 -43 -46 95 c-96 200 -152 313 -163 326 -6 7 -24 18 -40 23 -25 9
-41 4 -118 -34 -130 -64 -134 -83 -46 -255 14 -28 24 -52 22 -53 -2 -1 -34
-16 -73 -34 -100 -45 -135 -75 -135 -116 0 -24 -8 -40 -30 -59 -41 -37 -40
-80 2 -137 17 -24 27 -45 22 -47 -5 -2 -31 -16 -59 -31 -43 -23 -50 -32 -53
-61 -2 -18 2 -46 8 -61 9 -23 8 -34 -5 -59 -9 -18 -13 -41 -10 -52 4 -12 -1
-29 -14 -45 -33 -41 -27 -78 19 -128 22 -24 40 -48 40 -53 0 -6 -18 -23 -40
-38 -69 -48 -90 -104 -51 -139 16 -15 18 -23 9 -47 -7 -21 -7 -38 1 -57 9 -23
8 -35 -9 -69 -25 -52 -17 -79 39 -123 l40 -33 -25 -19 c-30 -24 -54 -69 -54
-102 0 -13 12 -39 27 -57 21 -25 26 -40 24 -71 -1 -21 2 -45 8 -52 8 -10 8
-22 1 -40 -27 -72 -6 -115 72 -146 18 -8 34 -14 36 -16 2 -1 -11 -23 -27 -50
-40 -62 -40 -98 -1 -134 20 -19 30 -38 30 -57 0 -16 7 -38 15 -49 8 -11 14
-41 15 -72 0 -48 3 -54 31 -71 17 -11 46 -22 65 -25 18 -4 36 -11 39 -15 3 -5
-6 -29 -20 -53 -35 -60 -33 -100 6 -132 17 -14 35 -26 40 -26 5 0 9 -9 9 -19
0 -11 11 -33 24 -48 16 -19 24 -41 24 -62 -1 -46 27 -70 96 -81 32 -5 61 -11
63 -14 2 -2 -2 -29 -11 -60 -19 -74 -10 -106 37 -131 21 -11 46 -34 56 -50 16
-27 27 -32 90 -43 39 -6 87 -12 105 -12 40 0 45 -9 35 -69 -14 -86 -11 -166 9
-184 24 -21 85 -36 164 -39 103 -4 105 -1 134 223 13 101 25 208 26 236 1 51
3 53 27 49 14 -3 74 -10 134 -17 59 -7 107 -16 107 -21 0 -4 -11 -8 -25 -8
-55 0 -181 -32 -200 -51 -26 -26 -25 -67 8 -239 15 -74 43 -222 63 -328 32
-171 40 -195 60 -209 34 -22 47 -21 269 22 373 71 355 69 355 35 0 -14 -25
-32 -92 -67 -124 -64 -129 -78 -68 -199 36 -72 49 -89 78 -101 35 -14 38 -14
128 32 51 26 98 44 103 41 5 -4 26 -40 47 -81 38 -78 72 -115 106 -115 11 0
33 -14 50 -30 40 -40 74 -39 131 5 25 19 50 35 55 35 5 0 21 -23 36 -51 32
-57 64 -76 111 -62 21 6 38 5 55 -4 14 -7 35 -11 48 -8 14 4 34 -2 52 -15 44
-31 70 -26 120 25 24 25 48 45 52 45 4 0 26 -25 48 -55 22 -30 47 -55 55 -55
8 0 15 -4 15 -10 0 -5 7 -10 15 -10 8 0 15 4 15 9 0 14 58 34 82 28 13 -3 32
-2 43 3 20 7 73 -13 86 -33 10 -14 67 34 106 88 l22 30 38 -36 c65 -63 102
-73 144 -41 27 22 134 38 144 22 10 -17 71 -11 87 8 8 9 27 38 42 64 15 27 29
48 32 48 4 0 23 -13 43 -29 63 -49 76 -53 116 -37 19 8 38 22 41 30 4 11 14
13 34 10 17 -4 32 -1 41 9 10 11 27 14 64 10 43 -4 53 -2 71 18 12 13 29 45
39 72 10 26 19 47 22 47 2 0 29 -13 60 -30 31 -16 62 -30 70 -30 8 0 31 16 50
35 19 19 45 35 57 35 13 0 31 9 40 19 13 15 26 18 52 14 54 -9 81 15 95 87 6
33 16 63 20 66 5 3 35 -4 66 -16 68 -25 101 -16 132 36 12 19 28 34 39 34 33
0 49 32 68 132 22 112 14 107 129 83 102 -22 131 -20 151 10 24 37 56 189 45
217 -15 40 -33 47 -182 79 -79 16 -172 36 -207 44 -35 8 -75 15 -88 15 -20 0
-24 4 -20 18 3 9 14 58 25 107 20 97 27 96 35 -5 10 -110 40 -122 236 -100 47
5 162 16 255 25 303 28 327 35 337 90 9 47 -57 696 -73 728 -18 34 -29 38 -96
36 -35 -1 -65 0 -67 2 -2 2 28 20 69 40 l73 35 53 -120 c126 -287 145 -325
176 -333 15 -4 37 -6 48 -4 30 4 161 69 176 87 21 26 13 74 -25 155 -20 42
-36 81 -36 86 0 6 43 30 96 53 99 45 114 59 114 109 0 19 8 36 25 49 43 34 50
63 26 110 -11 22 -25 43 -31 47 -21 13 -8 33 33 50 77 34 92 63 67 131 -8 21
-7 35 5 61 9 19 13 43 10 54 -5 15 1 29 18 47 41 44 40 73 -8 133 -19 24 -35
49 -35 54 0 6 19 21 41 35 23 14 45 35 50 48 10 25 3 69 -13 89 -7 8 -6 23 0
43 8 21 8 39 1 60 -9 24 -7 34 10 59 12 16 21 38 21 49 0 25 -42 76 -81 99
l-29 17 46 47 c52 53 58 82 28 126 -23 35 -33 137 -19 206 9 44 -7 68 -70 99
-22 11 -41 22 -43 23 -2 2 13 27 32 55 20 29 36 61 36 72 0 11 -16 36 -35 55
-24 24 -34 42 -30 53 6 19 -13 70 -27 70 -4 0 -5 24 -2 54 8 64 -9 88 -78 107
-24 7 -45 14 -47 15 -1 2 9 28 25 59 33 69 27 98 -29 134 -28 18 -37 31 -37
51 0 15 -7 33 -15 40 -10 8 -14 29 -13 62 1 64 -19 84 -97 99 -33 6 -63 13
-67 15 -4 3 0 21 8 40 8 20 14 55 12 77 -3 36 -7 44 -36 57 -21 10 -35 25 -40
45 -12 42 -54 62 -160 77 -74 10 -91 15 -88 28 12 39 28 168 24 194 -5 46 -41
64 -150 78 -89 11 -99 10 -117 -6 -10 -10 -22 -27 -25 -39 -10 -41 -66 -410
-66 -435 0 -22 -3 -24 -32 -18 -18 4 -53 9 -78 12 -83 10 -92 22 -23 31 75 10
118 50 108 99 -2 11 -18 109 -35 219 -67 427 -71 450 -89 474 -9 14 -28 28
-42 31 -13 4 -89 -4 -169 -17 -80 -12 -229 -36 -332 -53 -102 -16 -194 -30
-205 -30 -10 0 55 36 145 80 208 103 210 106 133 260 -52 104 -69 108 -196 47
l-95 -46 -41 81 c-47 94 -78 128 -115 128 -16 0 -36 10 -50 25 -39 42 -67 42
-131 -1 -31 -22 -58 -34 -60 -29 -2 6 -16 32 -31 60 -32 58 -66 76 -113 58
-25 -10 -35 -9 -55 3 -14 10 -32 13 -44 9 -15 -5 -29 0 -43 13 -21 19 -42 26
-80 23 -9 0 -37 -19 -61 -41 -24 -22 -47 -40 -52 -40 -5 0 -24 23 -41 50 -37
55 -68 69 -117 52 -17 -6 -48 -9 -68 -6 -33 6 -42 2 -88 -37 -37 -31 -55 -41
-65 -34 -127 88 -154 103 -168 89z m-41 -85 l19 -21 17 22 18 22 65 -47 c36
-25 65 -49 65 -52 0 -3 -11 -21 -24 -38 -18 -24 -22 -35 -14 -43 8 -8 36 11
104 73 50 47 95 85 100 85 4 0 15 -7 25 -16 17 -15 21 -15 52 5 19 11 37 21
40 21 3 0 29 -34 58 -75 l51 -75 75 67 74 66 35 -34 c30 -29 37 -32 55 -21 17
11 23 10 39 -10 18 -22 19 -22 54 -5 20 9 41 17 46 17 5 0 28 -36 50 -80 22
-44 42 -80 45 -80 3 0 37 23 77 51 l72 52 19 -24 c11 -13 25 -32 32 -42 11
-15 17 -17 33 -8 12 6 25 11 30 11 5 0 33 -51 62 -112 29 -62 54 -114 55 -116
2 -2 53 22 114 52 61 31 114 56 119 56 8 0 72 -123 72 -139 0 -8 -136 -77
-587 -298 l-113 -56 22 -38 c12 -22 25 -39 29 -39 3 0 52 23 108 50 56 28 106
50 111 50 10 0 190 -358 190 -376 0 -10 -138 -80 -144 -73 -3 2 -29 55 -60
117 -31 61 -57 112 -59 112 -1 0 -53 -25 -114 -55 -62 -30 -115 -55 -117 -55
-3 0 -29 46 -57 103 -27 56 -56 107 -62 114 -9 9 -32 -2 -97 -48 -114 -79
-130 -87 -140 -69 -30 51 -127 184 -137 187 -7 3 -41 -22 -75 -53 -35 -32 -75
-70 -91 -83 l-27 -25 -35 34 c-33 32 -36 33 -53 17 -10 -9 -22 -17 -26 -17 -4
0 -34 20 -66 45 -32 25 -62 45 -65 45 -4 0 -34 -25 -67 -56 -59 -54 -61 -55
-80 -37 -20 17 -21 17 -53 -21 -36 -43 -31 -44 -113 16 -29 22 -50 43 -47 48
8 13 -68 53 -83 43 -8 -5 -38 -53 -67 -108 -59 -114 -65 -116 -145 -67 -65 40
-127 65 -143 59 -7 -3 -30 -55 -51 -116 -21 -61 -41 -113 -45 -115 -3 -2 -59
16 -124 39 -78 28 -120 39 -122 31 -2 -6 -13 -60 -25 -120 -11 -60 -23 -112
-25 -115 -3 -3 -60 6 -126 18 -66 13 -123 21 -126 17 -3 -3 -16 -58 -29 -122
-12 -64 -25 -118 -28 -121 -10 -10 -147 18 -152 32 -5 11 4 64 72 425 46 244
57 305 58 324 1 15 -8 22 -38 28 -22 5 -43 5 -47 1 -3 -5 -14 -48 -23 -98 -10
-49 -19 -102 -22 -117 -3 -15 -9 -30 -12 -32 -4 -2 -36 2 -72 10 -36 7 -125
25 -198 39 -74 14 -137 27 -141 30 -5 2 -1 38 7 80 17 88 9 85 162 54 57 -11
106 -16 110 -12 3 4 14 53 24 108 24 132 28 144 59 138 21 -4 26 1 40 36 9 23
20 41 24 41 4 0 40 -12 80 -26 40 -14 79 -24 86 -21 8 3 19 38 26 79 19 103
22 108 68 97 33 -7 41 -6 55 12 13 15 25 19 43 15 21 -5 27 -1 46 36 12 24 23
44 24 46 2 2 40 -15 85 -38 45 -23 86 -38 90 -33 4 4 17 37 30 73 31 93 28 90
80 73 26 -9 46 -11 47 -6 2 6 10 18 17 28 11 15 16 16 36 5 21 -11 26 -10 52
19 15 17 31 31 34 31 3 0 38 -23 76 -51 39 -28 74 -47 78 -42 4 4 25 42 46 83
21 41 39 77 41 80 2 2 25 -6 50 -20 43 -23 46 -23 59 -6 7 10 17 16 21 15 19
-9 122 -85 123 -91 0 -12 -84 -128 -93 -128 -5 0 -22 9 -38 21 l-29 20 -20
-33 c-11 -18 -20 -38 -20 -45 0 -6 28 -32 63 -58 l62 -46 20 24 c39 46 155
209 155 216 0 4 -14 20 -30 36 l-31 30 58 57 c32 31 61 57 64 58 3 0 14 -9 25
-21z m2179 -641 c12 -55 105 -661 102 -664 -3 -3 -558 -91 -638 -101 l-45 -5
-12 68 c-46 278 -92 575 -92 597 0 20 11 23 140 42 148 23 200 31 320 50 58 9
128 20 155 25 28 4 53 8 57 9 4 0 10 -9 13 -21z m-739 -44 c-18 -17 -20 -60
-6 -118 15 -67 0 -61 -36 14 -19 40 -34 75 -34 79 0 9 59 39 78 40 10 1 9 -3
-2 -15z m-892 -292 c24 -37 52 -74 61 -82 34 -28 81 -17 160 38 41 29 77 52
80 52 3 0 25 -40 49 -89 60 -119 76 -125 190 -75 44 20 85 40 90 45 18 17 25
9 72 -86 63 -126 76 -131 192 -79 29 13 54 24 56 24 1 0 8 -39 15 -87 15 -109
26 -137 57 -153 24 -13 45 -12 221 17 l32 5 -2 -87 c-2 -83 -1 -88 23 -106 16
-12 57 -23 110 -30 47 -6 90 -14 96 -18 8 -4 7 -23 -2 -66 -17 -78 -17 -157
-1 -177 15 -19 64 -34 140 -43 35 -4 60 -12 63 -20 3 -8 -6 -48 -20 -90 -44
-131 -35 -152 87 -190 45 -14 88 -29 95 -34 10 -6 2 -30 -34 -99 -64 -127 -60
-137 96 -218 30 -15 56 -29 58 -30 2 -1 -9 -14 -23 -30 -35 -38 -105 -143
-105 -159 0 -22 38 -62 105 -111 36 -26 65 -51 65 -55 0 -4 -29 -33 -64 -64
-75 -66 -94 -101 -75 -137 7 -12 39 -53 72 -91 33 -37 58 -69 56 -70 -2 -2
-34 -22 -70 -45 -37 -24 -75 -52 -84 -62 -30 -34 -21 -77 34 -158 28 -41 51
-78 51 -82 0 -4 -39 -25 -86 -46 -87 -38 -114 -62 -114 -99 0 -11 18 -60 40
-109 22 -49 37 -92 35 -96 -3 -4 -41 -23 -86 -41 -123 -51 -139 -83 -94 -185
14 -31 25 -58 25 -59 0 -1 -39 -5 -87 -8 -112 -9 -142 -17 -165 -48 -16 -22
-17 -34 -8 -133 6 -60 8 -111 6 -114 -3 -2 -35 2 -73 11 -75 17 -100 12 -130
-26 l-19 -25 -23 96 c-43 187 -61 226 -123 258 -35 18 -146 58 -223 79 -70 20
-87 32 -81 54 2 9 7 96 11 194 7 175 7 177 -14 177 -12 0 -21 6 -21 15 0 21 1
21 -159 5 l-105 -10 -33 32 c-18 18 -33 36 -33 40 0 4 25 8 55 8 58 0 63 4 41
35 -7 11 -66 114 -130 228 l-117 208 22 77 c18 68 30 88 82 148 33 38 65 69
71 69 6 0 29 -41 51 -91 42 -96 44 -100 168 -243 43 -50 95 -119 116 -153 35
-58 45 -66 124 -107 92 -46 168 -63 183 -40 4 7 7 52 6 99 -3 118 14 281 30
291 14 9 185 63 231 73 l27 6 -2 182 c-3 171 -4 183 -23 193 -117 59 -179 102
-243 167 -71 72 -74 77 -107 183 -19 60 -35 114 -35 120 0 5 18 39 40 75 55
87 86 156 107 234 16 61 16 68 0 100 -9 19 -27 42 -41 51 -34 22 -251 67 -301
62 -63 -6 -81 5 -104 68 -23 61 -26 127 -11 240 12 93 -3 123 -89 184 -35 25
-83 61 -105 78 -80 64 -80 64 -144 0 l-58 -57 -91 65 -91 65 -131 -82 -131
-81 -1 -81 c0 -45 -6 -99 -13 -121 -14 -47 0 -46 -241 -26 -88 7 -196 14 -240
16 l-80 2 -100 -59 c-65 -39 -112 -75 -135 -103 -29 -37 -45 -48 -100 -64
l-65 -20 -55 -107 c-44 -86 -65 -116 -113 -158 -95 -83 -140 -155 -171 -271
-26 -95 -29 -103 -86 -160 -33 -33 -81 -97 -109 -142 l-49 -81 47 -59 47 -58
79 -3 c110 -3 110 -3 84 -53 -17 -34 -19 -46 -10 -66 16 -36 13 -74 -7 -97
-63 -71 -182 -308 -182 -362 0 -8 19 -18 45 -25 25 -6 47 -15 50 -19 3 -4 -7
-40 -21 -80 l-25 -73 45 -46 c45 -46 46 -48 46 -114 l0 -66 -74 -83 -74 -83
82 -120 82 -120 65 -13 c114 -24 109 -20 187 -137 39 -60 72 -112 72 -115 0
-3 -55 -38 -123 -79 -67 -41 -146 -90 -175 -108 l-53 -34 57 -67 c32 -37 64
-74 71 -83 11 -13 12 -35 7 -92 l-7 -75 -48 -26 c-26 -15 -50 -23 -52 -19 -3
5 -12 46 -21 92 -29 152 -43 161 -198 131 -55 -11 -102 -20 -105 -20 -2 0 -1
30 3 68 11 93 9 110 -15 136 -16 17 -41 26 -99 34 -42 7 -89 12 -105 12 -30 0
-30 -2 -6 138 6 41 5 62 -6 88 -17 41 -45 53 -137 61 -36 3 -72 9 -78 13 -9 6
-5 30 15 95 39 130 26 150 -127 190 -38 10 -68 22 -68 26 0 5 16 40 35 78 46
90 47 131 3 164 -18 14 -61 37 -95 52 -35 15 -63 30 -63 32 0 2 25 40 55 85
56 82 66 119 42 151 -6 9 -47 41 -90 70 l-77 54 72 65 c68 61 73 68 73 107 0
37 -6 47 -70 111 -38 38 -67 71 -64 73 2 2 38 29 80 59 109 80 112 103 28 219
-27 37 -49 70 -49 74 0 3 38 24 84 45 129 61 135 78 71 208 -30 62 -41 94 -33
99 6 4 50 28 97 53 111 58 118 77 72 176 -17 37 -30 69 -28 71 3 2 52 10 111
18 155 20 163 31 141 187 -8 56 -12 104 -10 107 3 2 30 -1 61 -8 124 -24 138
-14 166 126 11 54 22 100 24 102 3 3 30 -1 62 -8 153 -33 184 -26 207 52 8 28
15 58 15 66 0 9 5 32 10 52 l10 37 83 -29 c141 -49 158 -41 202 92 15 46 31
88 35 93 5 5 21 0 37 -11 42 -30 139 -73 163 -73 30 0 63 40 106 126 l36 74
26 -25 c14 -14 53 -44 86 -66 67 -45 108 -47 135 -9 9 13 25 20 48 20 27 0 44
10 81 44 l47 44 49 -36 c34 -25 60 -36 86 -37 21 0 49 -9 63 -18 46 -30 70
-22 146 48 39 36 75 65 81 65 5 0 29 -31 54 -68z m2109 -29 c11 -7 9 -50 -10
-155 -9 -54 -14 -100 -11 -104 5 -4 224 -43 249 -44 4 0 6 -16 5 -37 -1 -34 2
-37 34 -45 19 -5 38 -13 42 -17 5 -4 -4 -42 -18 -85 -21 -61 -24 -80 -14 -86
7 -4 47 -13 89 -19 41 -6 79 -15 83 -19 3 -4 3 -27 -2 -52 -8 -41 -7 -47 15
-63 20 -15 23 -22 15 -43 -9 -21 -5 -27 30 -49 22 -14 44 -25 50 -25 17 0 11
-18 -30 -95 l-41 -73 56 -21 c31 -12 60 -21 66 -21 6 0 19 -4 29 -10 17 -9 17
-12 2 -60 -17 -54 -18 -52 28 -79 12 -8 13 -13 0 -36 -16 -29 -20 -23 49 -74
l25 -18 -52 -70 c-29 -39 -52 -73 -52 -76 0 -3 34 -24 75 -46 41 -23 75 -45
75 -49 0 -5 -9 -28 -21 -52 l-21 -43 23 -18 c22 -16 22 -18 5 -44 -17 -26 -17
-27 19 -67 l37 -40 -63 -64 -64 -64 30 -26 c17 -13 47 -36 68 -51 20 -14 37
-30 37 -35 0 -6 -14 -28 -31 -50 l-32 -39 24 -25 23 -24 -22 -16 c-28 -19 -28
-28 3 -68 14 -18 25 -37 25 -43 0 -6 -31 -31 -70 -57 -38 -25 -70 -49 -70 -53
0 -3 28 -35 62 -71 l62 -65 -37 -31 c-40 -33 -44 -45 -25 -76 11 -17 9 -22
-10 -35 -27 -20 -28 -35 -2 -86 l21 -40 -75 -34 c-41 -20 -78 -40 -81 -45 -4
-6 14 -40 40 -77 25 -36 43 -69 38 -72 -4 -4 -25 -20 -46 -35 -28 -20 -36 -33
-32 -45 19 -44 17 -48 -37 -71 -106 -45 -178 -80 -178 -85 0 -8 45 -114 76
-180 15 -31 25 -57 23 -58 -25 -19 -144 -66 -150 -60 -7 7 -103 219 -264 580
-62 138 -61 138 -112 105 -30 -19 -29 -29 7 -106 33 -74 60 -137 60 -142 0 -3
-26 -16 -57 -30 -32 -14 -96 -43 -143 -64 -162 -73 -179 -80 -187 -80 -9 0
-63 118 -63 138 0 10 177 102 198 102 4 0 13 4 20 9 11 6 2 33 -37 121 -28 63
-51 117 -51 122 0 4 52 33 116 63 133 63 129 42 32 187 -33 49 -58 91 -56 93
2 2 48 34 103 70 55 37 101 70 103 75 2 4 -36 49 -85 100 l-87 92 92 87 c51
47 92 91 92 97 0 12 -52 64 -64 64 -19 0 -135 94 -129 104 24 39 87 116 97
116 6 0 21 18 32 40 27 48 26 49 -103 114 -50 25 -94 49 -97 54 -3 5 20 57 50
116 41 79 53 110 45 120 -6 7 -55 27 -108 45 -54 17 -105 36 -113 41 -13 8 -9
26 24 126 21 64 34 120 29 125 -4 4 -55 16 -113 25 -58 9 -110 22 -116 28 -8
8 -7 37 7 111 27 151 30 141 -48 155 -38 6 -90 14 -118 17 -27 3 -55 9 -61 14
-11 9 4 141 18 155 4 4 179 -20 388 -52 418 -64 400 -64 400 3 0 31 0 31 -72
43 -166 27 -178 30 -178 50 0 19 46 322 56 373 l6 29 71 -7 c40 -4 75 -9 80
-12z m-4315 -495 c23 -188 41 -342 40 -343 -2 -2 -84 -12 -183 -24 -99 -12
-227 -28 -285 -36 -58 -8 -131 -17 -162 -20 -67 -7 -59 -26 -83 175 -9 74 -27
216 -39 315 -13 99 -20 184 -16 188 8 9 576 84 645 86 l40 1 43 -342z m2354
198 c42 -31 83 -56 90 -56 8 0 36 23 63 50 27 28 53 50 58 50 12 0 170 -114
187 -135 11 -13 11 -35 1 -124 -11 -94 -10 -115 4 -173 32 -128 78 -169 185
-167 58 0 249 -33 273 -48 17 -10 1 -97 -31 -165 -44 -95 -96 -173 -151 -227
-25 -25 -59 -68 -75 -95 l-28 -49 18 -31 c11 -18 56 -86 102 -153 74 -107 89
-123 133 -143 33 -14 59 -35 76 -61 18 -28 46 -49 100 -76 46 -23 69 -39 61
-44 -23 -12 -179 -29 -272 -29 -150 0 -300 44 -353 103 -11 12 -45 82 -74 155
-46 112 -57 132 -74 130 -22 -3 -22 3 -10 95 5 37 10 47 23 45 11 -2 24 12 39
42 28 58 28 55 -8 70 -25 11 -29 17 -24 38 4 15 -4 50 -21 95 -27 69 -27 73
-17 181 l11 111 -82 85 c-45 47 -101 110 -123 140 -37 51 -45 56 -109 74 -38
10 -89 25 -114 33 -25 8 -71 17 -103 20 -62 6 -80 19 -54 38 14 10 17 30 17
98 l0 85 68 43 c94 60 114 69 126 60 6 -5 46 -34 88 -65z m-542 -316 c281 -25
331 -32 431 -60 57 -17 104 -30 105 -30 0 0 16 -21 34 -47 18 -27 64 -79 101
-118 l68 -70 -8 -100 c-7 -90 -6 -106 14 -162 l22 -62 -23 -38 c-36 -59 -37
-63 -26 -86 22 -46 22 -66 6 -237 -11 -125 -13 -194 -7 -237 l9 -61 -66 -76
c-62 -72 -67 -81 -94 -182 l-28 -105 28 -52 c15 -29 61 -110 101 -180 40 -71
73 -132 73 -135 0 -7 -33 -7 -464 6 l-230 7 -48 95 -49 94 51 111 c28 60 50
115 50 120 0 6 -37 38 -82 72 -70 51 -99 66 -183 90 -99 29 -100 30 -122 74
-12 24 -45 67 -75 96 l-53 52 -216 60 -216 61 -170 0 -171 0 -17 26 c-27 41
-8 49 73 30 39 -9 75 -16 79 -16 4 0 26 34 48 76 l40 76 110 -6 110 -7 68 92
c37 50 65 94 62 99 -2 4 -43 20 -91 36 -47 15 -88 33 -91 41 -3 7 8 33 23 58
l29 46 101 -7 101 -6 69 113 c38 62 71 117 72 121 2 5 -32 8 -75 8 -44 0 -83
3 -86 6 -4 4 14 36 39 71 47 65 51 93 14 93 -51 0 0 60 108 126 l67 41 130 -3
c72 -2 186 -8 255 -14z m-2741 -102 c5 -13 68 -144 141 -293 73 -148 145 -298
161 -333 l29 -63 31 18 c54 32 54 34 0 142 -28 55 -51 105 -51 110 0 8 363
191 379 191 8 0 71 -125 71 -140 0 -5 -52 -35 -115 -66 -63 -31 -115 -58 -115
-59 0 -1 25 -53 55 -114 30 -61 55 -114 55 -116 0 -3 -46 -28 -102 -56 -57
-28 -108 -56 -115 -61 -13 -11 7 -46 84 -151 24 -31 43 -63 43 -70 -1 -6 -43
-41 -95 -77 -52 -36 -95 -72 -95 -80 0 -9 36 -51 80 -95 44 -44 80 -84 80 -90
0 -6 -34 -44 -76 -85 -100 -99 -103 -105 -68 -141 15 -16 34 -29 42 -29 8 0
43 -20 78 -45 l64 -46 -41 -57 c-23 -31 -50 -64 -61 -72 -19 -16 -48 -65 -48
-81 0 -5 48 -33 107 -62 60 -29 109 -60 111 -69 2 -8 -20 -62 -48 -118 -27
-57 -49 -104 -48 -106 2 -1 46 -14 98 -29 101 -28 150 -45 150 -52 0 -2 -13
-49 -30 -105 -31 -103 -36 -138 -22 -138 25 0 236 -31 240 -35 3 -3 0 -33 -6
-68 -6 -34 -14 -90 -18 -123 -8 -73 -14 -68 126 -84 123 -14 131 -16 126 -43
-3 -12 -8 -48 -11 -79 -4 -37 -11 -58 -19 -58 -7 0 -136 16 -287 35 -376 48
-478 59 -485 52 -7 -6 -19 -87 -13 -87 39 -1 245 -32 251 -38 5 -5 1 -60 -7
-123 -16 -118 -19 -144 -31 -242 l-7 -59 -56 6 c-111 13 -114 14 -107 49 11
62 26 220 22 225 -3 2 -56 11 -118 19 -138 17 -142 18 -135 43 6 23 -7 35 -50
45 -18 3 -35 11 -38 16 -3 5 4 41 15 81 12 40 23 80 26 89 4 13 -6 18 -48 23
-29 3 -71 9 -93 12 l-41 6 1 51 c0 47 -2 52 -23 55 -20 3 -22 8 -17 35 6 31 4
33 -45 54 l-50 23 40 80 c22 44 40 83 40 87 0 5 -36 19 -80 32 -45 13 -82 27
-85 30 -2 4 2 26 8 49 11 41 10 44 -17 66 -20 15 -25 25 -18 30 22 14 12 45
-23 72 -19 14 -35 31 -35 36 0 6 20 39 45 74 25 34 45 65 45 68 0 2 -32 19
-70 37 -39 17 -74 37 -79 43 -6 7 -2 26 10 50 24 50 24 57 -1 79 -19 16 -19
19 -4 42 15 23 15 26 -4 52 -11 15 -29 37 -41 47 l-22 20 62 62 61 62 -58 42
c-33 24 -63 46 -68 51 -4 4 6 28 25 53 l32 46 -21 23 c-26 28 -27 35 -6 58 16
17 15 21 -10 53 -14 19 -26 39 -26 43 0 5 34 32 75 61 l76 53 -61 68 c-33 37
-60 71 -60 76 0 4 11 18 25 31 27 25 31 44 13 62 -9 9 -6 18 14 39 l26 28 -18
35 c-11 19 -19 42 -20 50 0 10 30 30 76 53 l75 38 -44 62 c-24 34 -47 67 -50
74 -5 7 10 24 38 43 34 24 45 36 40 48 -19 45 -17 46 100 105 64 31 114 61
112 65 -27 46 -107 226 -102 230 8 8 127 69 138 71 4 0 11 -9 16 -21z m2091
-110 c-1 -7 -25 -49 -55 -93 l-55 -80 82 -3 c46 -2 86 -6 90 -10 4 -4 -6 -25
-21 -47 l-27 -40 -60 5 c-32 2 -77 4 -99 5 l-40 0 -66 -110 c-37 -60 -64 -113
-61 -116 4 -3 46 -19 95 -34 48 -15 87 -30 87 -33 0 -3 -10 -21 -22 -40 l-23
-34 -115 6 -116 6 -37 -70 c-21 -38 -42 -72 -46 -75 -11 -6 -71 15 -71 25 0 4
26 32 58 60 31 29 61 60 66 68 5 9 19 58 32 110 27 111 69 179 151 244 40 32
66 66 103 132 28 49 50 91 50 94 0 3 7 14 17 24 19 21 83 25 83 6z m1943 -610
c14 -46 29 -94 33 -108 12 -44 162 -187 232 -223 81 -41 115 -69 111 -89 -7
-29 -105 20 -169 85 -30 30 -72 63 -92 74 -27 13 -59 49 -117 133 -45 63 -81
121 -81 128 0 14 42 82 51 82 3 0 18 -37 32 -82z m-424 -375 c41 -96 51 -110
94 -139 69 -47 148 -74 270 -92 100 -15 116 -15 240 1 72 10 147 20 165 24 31
5 32 4 32 -30 l0 -35 -114 -36 c-144 -47 -156 -59 -167 -163 -4 -43 -8 -112
-9 -153 -1 -96 -7 -108 -52 -90 -63 26 -108 60 -127 97 -18 36 -87 124 -194
246 -30 35 -62 89 -88 148 -22 52 -45 106 -52 121 -6 14 -24 34 -39 43 -27 15
-28 20 -28 89 0 67 6 93 18 81 3 -3 26 -53 51 -112z m-1587 -43 c194 -54 214
-62 249 -96 21 -20 48 -61 60 -90 l21 -54 102 -30 c116 -35 150 -50 199 -91
l36 -30 -44 -96 c-25 -52 -45 -103 -45 -112 1 -9 31 -74 68 -146 l67 -130 329
-7 c279 -5 331 -9 344 -22 9 -8 13 -18 10 -21 -3 -4 -145 -10 -315 -14 l-308
-8 -245 -123 -245 -123 -200 -34 c-110 -19 -224 -38 -254 -43 -29 -5 -59 -14
-65 -19 -8 -7 -25 -7 -47 -2 -19 5 -51 12 -72 16 -32 5 -43 15 -87 80 -28 41
-50 78 -50 83 0 5 27 39 60 75 l60 65 0 104 c0 103 0 103 -31 127 -46 37 -51
53 -32 105 15 39 21 46 44 46 35 0 49 -14 100 -101 23 -38 45 -72 49 -74 10
-6 70 27 70 37 0 12 -109 185 -123 196 -7 5 -39 17 -72 26 -117 34 -125 38
-125 51 0 38 94 199 144 244 24 23 26 31 26 108 0 112 23 163 75 163 20 0 130
-27 247 -60z m838 -1040 c-20 -5 -39 -5 -44 1 -6 5 7 9 35 8 l44 -1 -35 -8z
m-90 -33 c-19 -13 -132 -84 -250 -157 -118 -72 -283 -174 -366 -226 -84 -52
-157 -94 -162 -94 -11 0 -146 199 -140 206 2 2 44 10 93 18 50 8 159 27 244
41 84 14 156 24 158 21 2 -2 102 45 221 105 215 108 269 131 202 86z m1002
-124 c-3 -87 -9 -151 -15 -155 -6 -3 -38 -9 -71 -13 -34 -4 -131 -15 -216 -26
-457 -58 -554 -69 -562 -61 -4 4 -12 50 -18 102 -6 52 -14 98 -18 101 -4 4
-25 4 -47 0 -32 -5 -40 -11 -38 -26 1 -11 7 -69 14 -129 9 -89 9 -110 -2 -121
-26 -24 -932 -727 -943 -731 -6 -2 -26 25 -45 62 -33 63 -34 68 -27 149 l6 83
-47 52 c-39 44 -44 53 -32 65 8 7 88 59 179 115 91 55 290 178 443 273 152 95
330 204 394 244 77 48 131 74 158 77 22 3 135 15 250 26 305 30 411 41 490 49
39 5 88 9 111 10 l41 1 -5 -147z m31 -277 c3 -7 18 -16 34 -20 68 -16 231 -70
265 -87 33 -17 39 -27 57 -86 30 -103 75 -322 67 -330 -3 -3 -29 -1 -57 5
-125 29 -147 8 -176 -171 -3 -21 -9 -40 -14 -42 -4 -3 -42 8 -84 25 -87 35
-135 38 -159 11 -9 -10 -30 -53 -47 -96 -16 -43 -32 -82 -35 -86 -2 -5 -26 5
-53 21 -153 95 -180 89 -255 -57 l-38 -72 -61 51 c-83 67 -119 83 -154 66 -28
-14 -121 -125 -122 -145 -2 -28 -32 -10 -83 47 -99 113 -116 113 -224 8 l-73
-70 -33 48 c-100 145 -127 151 -248 58 -37 -29 -64 -44 -69 -38 -5 5 -28 43
-51 86 -22 42 -46 80 -53 86 -24 18 -63 21 -91 6 -28 -14 -52 -10 -28 5 15 9
613 472 766 593 61 49 118 88 126 89 8 0 202 24 430 54 477 61 456 59 463 41z
m1497 -88 c0 -23 4 -80 10 -127 5 -47 16 -160 25 -251 9 -91 18 -188 21 -216
l5 -51 -48 -6 c-26 -4 -122 -14 -213 -22 -91 -9 -223 -22 -293 -29 -90 -8
-130 -9 -136 -2 -4 6 -16 92 -25 191 -10 99 -22 230 -28 290 -6 61 -11 130
-12 155 -1 44 -1 44 39 51 22 4 78 10 125 14 47 3 162 15 255 25 94 9 194 18
223 19 l52 1 0 -42z m-805 -298 c27 -6 53 -14 58 -19 6 -6 -23 -161 -71 -388
-45 -207 -78 -381 -74 -385 4 -4 25 -8 46 -10 l39 -3 27 120 c20 93 30 121 44
123 9 2 68 -8 129 -22 62 -14 147 -32 190 -41 42 -10 79 -21 82 -26 5 -8 -20
-133 -30 -149 -3 -4 -55 3 -117 17 -62 13 -119 25 -127 26 -11 1 -21 -30 -40
-123 l-26 -125 -28 2 c-24 2 -31 -4 -47 -43 -11 -24 -21 -44 -22 -44 -2 0 -41
14 -87 30 -57 20 -87 27 -91 20 -4 -6 -15 -47 -24 -91 l-17 -81 -49 7 c-43 6
-50 4 -60 -15 -9 -17 -17 -20 -40 -15 -24 5 -31 2 -44 -22 -34 -62 -20 -64
-153 14 -49 28 -47 30 -84 -78 -12 -35 -25 -68 -29 -72 -4 -4 -26 0 -50 9 -42
17 -43 17 -60 -6 -15 -19 -20 -21 -39 -10 -20 10 -26 8 -54 -25 l-32 -36 -72
55 c-39 31 -76 56 -81 56 -5 0 -12 -8 -15 -17 -7 -22 -65 -124 -78 -138 -6 -6
-20 -3 -38 8 -36 21 -57 22 -69 1 -8 -15 -11 -15 -33 -1 -23 16 -26 15 -56
-13 -18 -17 -35 -30 -40 -30 -4 0 -37 29 -73 65 l-66 65 -53 -70 c-30 -38 -59
-70 -65 -70 -6 0 -22 9 -36 20 -31 24 -38 24 -62 3 -17 -15 -19 -15 -38 2 -19
17 -21 17 -54 -9 -19 -14 -37 -26 -39 -26 -3 0 -31 34 -62 75 -31 41 -59 75
-63 75 -4 0 -34 -27 -67 -60 -33 -33 -64 -60 -69 -60 -6 0 -22 12 -38 27 -25
24 -30 25 -53 13 -22 -12 -26 -11 -44 11 -19 24 -20 24 -49 7 -17 -10 -35 -18
-41 -18 -6 0 -26 31 -46 69 -19 38 -40 73 -46 76 -6 4 -23 -1 -37 -12 -15 -11
-49 -35 -75 -54 l-49 -34 -32 38 c-26 31 -37 37 -57 32 -22 -5 -28 2 -79 101
-30 58 -60 108 -67 111 -6 2 -59 -21 -118 -52 -58 -30 -109 -54 -113 -51 -4 3
-23 35 -42 72 -32 64 -32 67 -14 78 29 17 200 107 394 208 96 50 199 104 228
120 l52 30 -31 39 c-21 26 -35 37 -43 31 -19 -15 -184 -102 -193 -102 -5 0
-35 51 -67 113 -33 61 -76 144 -97 184 -22 39 -39 74 -39 76 0 6 131 77 141
77 4 0 34 -49 65 -110 32 -60 63 -110 69 -110 5 0 57 25 114 55 68 36 108 52
115 46 6 -6 36 -57 66 -115 30 -58 57 -106 60 -106 3 0 49 32 102 70 53 39
101 70 105 70 4 0 39 -43 76 -95 38 -52 73 -95 80 -95 6 0 51 39 99 87 l89 87
94 -94 94 -94 27 24 c14 14 33 39 41 55 28 54 88 124 101 120 24 -8 122 -89
122 -101 0 -13 68 -46 80 -39 5 3 32 47 59 98 28 50 55 98 60 106 7 11 19 8
62 -16 139 -78 172 -94 179 -86 4 4 24 53 45 108 21 55 43 105 49 111 8 9 36
2 111 -27 55 -21 108 -38 117 -39 19 0 27 24 55 158 20 97 12 94 165 58 56
-14 106 -22 110 -18 3 4 16 52 28 107 33 155 30 147 54 141 11 -4 43 -11 71
-16z m-2959 -500 c34 -184 59 -338 55 -341 -3 -3 -100 -23 -216 -43 -115 -21
-264 -49 -330 -62 -66 -13 -123 -20 -127 -16 -4 4 -19 70 -33 147 -59 317 -96
527 -93 530 2 2 66 15 143 29 225 40 417 76 460 86 83 17 72 42 141 -330z
m186 -312 c11 -16 17 -32 14 -37 -5 -8 -81 -51 -90 -51 -2 0 1 17 7 39 8 29 7
58 -4 115 -8 42 -13 78 -11 81 2 2 18 -24 35 -58 16 -34 39 -74 49 -89z"/>
<path d="M5066 7871 l-28 -30 73 -78 c189 -202 185 -198 211 -185 13 7 34 21
48 32 l24 18 -37 56 c-32 48 -40 55 -56 47 -16 -9 -31 3 -101 79 -45 50 -87
90 -94 90 -7 0 -25 -13 -40 -29z"/>
<path d="M5553 7854 c-35 -25 -63 -51 -63 -57 0 -7 11 -25 23 -41 l24 -29 49
33 c88 59 86 57 63 101 -10 22 -23 39 -27 39 -4 -1 -35 -21 -69 -46z"/>
<path d="M4725 7749 c-41 -56 -75 -105 -75 -109 0 -9 154 -120 167 -120 5 0
29 16 52 37 l43 36 80 -86 c44 -48 85 -87 91 -87 7 0 26 11 42 24 l30 24 -30
34 c-50 55 -145 157 -237 256 l-88 93 -75 -102z m128 -116 c-42 -29 -51 -29
-86 0 l-27 22 32 47 33 46 41 -46 41 -46 -34 -23z"/>
<path d="M4025 7740 c-20 -39 -19 -53 8 -65 12 -6 86 -44 165 -85 l144 -75 29
35 c16 19 29 40 29 46 0 7 -23 29 -50 49 -41 30 -53 35 -65 25 -12 -10 -35 -1
-119 44 -57 31 -109 56 -115 56 -6 0 -17 -13 -26 -30z"/>
<path d="M5882 7682 c-105 -51 -113 -54 -126 -37 -12 16 -16 15 -69 -20 -31
-21 -57 -39 -57 -41 0 -9 65 -94 72 -94 8 0 328 158 337 166 6 5 -20 62 -33
73 -7 6 -50 -10 -124 -47z"/>
<path d="M3617 7599 c-16 -44 -27 -83 -25 -85 2 -2 20 -10 40 -18 28 -12 38
-13 46 -3 11 14 56 147 51 151 -9 8 -69 36 -76 36 -5 0 -21 -36 -36 -81z"/>
<path d="M3861 7499 c-11 -34 -19 -65 -16 -69 2 -4 25 -15 50 -24 35 -14 49
-15 60 -6 11 9 34 1 112 -39 54 -28 105 -51 114 -51 9 0 24 11 33 25 17 26 21
55 8 55 -4 0 -80 38 -169 85 -89 47 -164 85 -166 85 -3 0 -14 -28 -26 -61z"/>
<path d="M4522 7470 c-12 -16 -22 -31 -22 -34 0 -7 130 -76 144 -76 7 0 20 8
30 19 16 17 13 21 -54 70 -39 28 -72 51 -73 51 -2 0 -13 -13 -25 -30z"/>
<path d="M5452 7463 l-33 -28 25 -30 24 -30 36 17 c20 10 36 21 36 25 0 5 -13
23 -28 41 l-27 33 -33 -28z"/>
<path d="M3481 7308 c-26 -126 -60 -322 -57 -325 2 -2 19 -6 38 -9 42 -7 47 2
79 145 13 55 28 101 34 101 12 0 48 90 40 99 -8 8 -98 41 -112 41 -6 0 -16
-24 -22 -52z"/>
<path d="M3769 7233 c-13 -35 -6 -49 28 -56 21 -5 32 -1 46 15 24 28 21 43 -8
56 -39 18 -55 15 -66 -15z"/>
<path d="M6610 7300 c-175 -29 -163 -23 -156 -78 14 -97 48 -297 52 -301 4 -5
332 47 344 54 4 2 3 30 -2 62 -5 32 -17 108 -26 168 l-17 110 -40 2 c-22 1
-92 -7 -155 -17z m114 -97 c4 -18 20 -119 21 -138 0 -5 -27 -15 -60 -22 -104
-21 -100 -23 -115 62 -10 57 -10 79 -2 87 7 7 12 10 12 7 0 -3 28 0 63 7 34 6
65 12 69 13 4 1 9 -7 12 -16z"/>
<path d="M7066 6465 c-3 -9 -6 -29 -6 -44 0 -25 4 -28 78 -43 42 -9 98 -20
125 -23 31 -4 47 -11 47 -20 0 -17 66 -47 94 -43 14 2 25 20 38 62 23 69 21
71 -61 81 -31 3 -92 12 -136 20 -155 26 -172 27 -179 10z"/>
<path d="M7599 6292 c-23 -59 -19 -63 64 -91 87 -28 101 -24 113 35 5 27 3 32
-18 37 -12 3 -51 14 -86 25 l-63 20 -10 -26z"/>
<path d="M7280 6122 c0 -11 -2 -26 -5 -34 -7 -19 7 -36 37 -43 23 -6 27 -3 38
30 14 42 8 52 -38 61 -28 6 -32 4 -32 -14z"/>
<path d="M7521 6052 c-20 -38 -30 -96 -20 -109 8 -9 -3 -40 -42 -119 l-52
-107 34 -29 c41 -35 34 -43 125 136 37 72 73 140 80 151 26 37 17 50 -51 72
-60 20 -66 20 -74 5z"/>
<path d="M7742 5798 c-27 -51 -66 -127 -87 -168 l-37 -74 38 -33 c22 -18 44
-33 51 -33 13 0 83 92 83 109 0 6 -7 11 -15 11 -8 0 -15 3 -15 6 0 3 25 54 55
113 30 59 55 113 55 119 0 11 -50 42 -69 42 -5 0 -32 -42 -59 -92z"/>
<path d="M7901 5455 c-23 -30 -44 -61 -47 -68 -2 -7 22 -33 60 -60 70 -52 80
-52 121 -7 19 21 19 21 -13 46 -38 30 -39 36 -10 74 12 16 20 31 17 33 -26 19
-61 37 -72 37 -8 0 -33 -25 -56 -55z"/>
<path d="M7515 5365 l-19 -36 28 -27 27 -27 25 30 c13 17 24 35 24 41 0 8 -52
54 -62 54 -2 0 -12 -16 -23 -35z"/>
<path d="M7723 5218 c-34 -39 -52 -70 -47 -83 3 -7 -31 -49 -75 -94 -45 -45
-81 -87 -81 -94 0 -6 10 -24 23 -40 l22 -27 140 130 c77 72 141 136 143 143 2
10 -87 87 -101 87 -2 0 -13 -10 -24 -22z"/>
<path d="M7791 4861 l-134 -128 32 -47 c18 -25 35 -46 39 -46 4 0 31 16 60 35
48 33 65 55 42 55 -27 0 -1 36 82 114 l92 86 -29 30 c-16 16 -34 30 -39 29 -6
0 -71 -58 -145 -128z"/>
<path d="M7501 4586 c-17 -18 -22 -32 -17 -48 13 -48 21 -52 60 -26 19 12 36
27 36 31 0 11 -42 67 -50 67 -4 0 -17 -11 -29 -24z"/>
<path d="M7857 4521 c-15 -10 -30 -20 -33 -23 -6 -7 85 -148 96 -148 16 0 80
31 80 39 0 12 -99 151 -108 150 -4 0 -19 -8 -35 -18z"/>
<path d="M7630 4368 c-25 -16 -47 -32 -49 -34 -5 -4 12 -45 61 -151 20 -46 47
-106 59 -135 12 -29 26 -57 30 -62 9 -10 47 -2 72 16 17 13 15 20 -32 127 -28
62 -51 117 -51 121 0 4 9 11 20 16 18 9 17 12 -21 72 -22 34 -41 62 -42 62 -1
0 -22 -15 -47 -32z"/>
<path d="M2733 6776 c-89 -12 -165 -24 -168 -27 -8 -8 35 -332 45 -343 9 -9
336 27 347 38 3 3 -2 65 -11 138 -24 181 -30 211 -41 213 -6 1 -83 -7 -172
-19z m100 -100 c3 -8 9 -45 12 -84 l7 -70 -73 -9 c-51 -6 -78 -6 -85 1 -7 6
-15 43 -18 83 l-7 72 33 5 c34 6 80 12 109 15 9 0 19 -5 22 -13z"/>
<path d="M5635 6653 c-16 -1 -58 -6 -92 -9 l-63 -6 0 -35 0 -35 99 7 c70 5
100 4 105 -4 4 -6 14 -55 21 -109 l14 -97 78 -73 c159 -147 183 -167 201 -156
39 25 36 39 -14 85 -27 24 -82 76 -123 115 l-74 71 -13 99 c-22 162 -19 154
-67 153 -23 -1 -55 -4 -72 -6z"/>
<path d="M5946 5939 l-58 -71 7 -151 7 -151 67 -95 c36 -53 73 -107 82 -120 9
-15 43 -34 87 -52 l72 -27 16 30 c8 16 13 33 9 36 -3 4 -31 16 -62 27 -54 19
-59 25 -130 129 l-73 108 0 73 c0 40 -3 92 -6 116 -6 43 -4 48 45 106 28 33
51 66 51 71 0 10 -38 42 -50 42 -3 0 -31 -32 -64 -71z"/>
<path d="M2152 5950 l-32 -20 23 -47 c94 -191 92 -184 77 -193 -8 -6 -19 -11
-24 -13 -11 -4 64 -117 77 -117 12 0 97 62 97 71 0 19 -164 339 -174 339 -6 0
-26 -9 -44 -20z"/>
<path d="M1988 5579 c-21 -11 -38 -23 -37 -27 1 -16 97 -137 110 -139 8 -2 27
8 43 21 l29 24 -47 66 c-25 36 -50 67 -54 70 -4 2 -24 -5 -44 -15z"/>
<path d="M2407 5444 l-37 -25 23 -34 c26 -41 36 -43 67 -10 21 22 22 27 10 55
-17 42 -21 43 -63 14z"/>
<path d="M2180 5283 c-25 -19 -47 -36 -49 -39 -2 -2 2 -11 10 -20 12 -15 3
-27 -84 -108 l-98 -92 35 -34 36 -34 107 104 c60 57 121 116 137 131 l28 27
-31 45 c-17 25 -35 48 -39 50 -4 3 -27 -11 -52 -30z"/>
<path d="M2258 4943 c-76 -76 -138 -143 -138 -148 1 -9 102 -85 114 -85 14 0
67 92 62 108 -4 13 17 42 74 101 44 45 80 86 80 90 0 4 -12 21 -27 39 l-28 33
-137 -138z"/>
<path d="M2401 4652 c-28 -40 -27 -47 10 -73 31 -22 32 -22 45 -4 21 28 17 59
-10 84 l-24 22 -21 -29z"/>
<path d="M1945 4640 l-30 -32 24 -17 c65 -43 65 -42 36 -80 -14 -19 -25 -38
-25 -41 0 -7 66 -40 79 -40 10 0 101 124 101 137 -1 10 -118 94 -140 100 -8 2
-29 -10 -45 -27z"/>
<path d="M2231 4412 c-39 -55 -40 -58 -22 -72 18 -14 17 -19 -30 -115 -68
-138 -67 -131 -19 -155 l40 -21 85 173 c46 94 82 175 79 180 -3 4 -25 21 -49
38 l-43 30 -41 -58z"/>
<path d="M2422 4119 c-45 -94 -82 -174 -82 -178 0 -8 121 -42 130 -36 15 9 33
96 23 106 -8 8 1 37 29 95 52 112 58 146 27 168 -13 9 -28 16 -35 16 -6 0 -48
-77 -92 -171z"/>
<path d="M2650 3904 c-20 -51 -15 -58 43 -69 l37 -7 0 35 c0 30 -5 38 -32 51
-39 20 -37 21 -48 -10z"/>
<path d="M2241 3744 c-12 -19 -21 -38 -21 -42 0 -6 153 -53 172 -52 7 0 28 56
28 75 0 10 -120 55 -147 55 -6 0 -20 -16 -32 -36z"/>
<path d="M2587 3683 c-11 -18 -37 -117 -32 -122 7 -6 386 -53 391 -48 2 2 7
17 10 34 6 30 5 31 -52 48 -32 9 -85 21 -118 27 -34 6 -72 17 -85 25 -13 8
-35 19 -50 23 -14 4 -33 11 -42 15 -10 3 -19 3 -22 -2z"/>
<path d="M7113 3562 l-143 -15 0 -51 c0 -63 26 -295 33 -303 7 -6 337 26 350
34 4 2 6 12 3 21 -3 10 -10 78 -16 152 -6 74 -13 145 -15 158 -6 26 -7 26
-212 4z m131 -168 c4 -42 5 -79 2 -82 -8 -8 -150 -20 -158 -13 -3 3 -9 40 -13
83 -8 88 -13 84 101 87 l61 1 7 -76z"/>
<path d="M6396 2990 c-9 -24 -26 -79 -36 -123 -11 -45 -26 -85 -34 -89 -19
-11 -52 -97 -40 -107 5 -4 33 -17 62 -29 39 -16 54 -18 57 -9 15 39 82 373 76
379 -4 4 -20 10 -37 14 -29 6 -32 3 -48 -36z"/>
<path d="M6057 2823 c-4 -6 -11 -22 -16 -36 -9 -24 -7 -26 34 -41 l45 -15 11
40 c7 21 10 42 7 44 -11 11 -76 17 -81 8z"/>
<path d="M5681 2671 c-25 -35 -35 -27 144 -126 77 -42 144 -81 150 -86 25 -24
56 16 72 92 5 25 1 28 -46 44 -28 9 -55 14 -61 10 -5 -3 -55 17 -111 44 -55
28 -107 51 -114 51 -8 0 -23 -13 -34 -29z"/>
<path d="M4532 2620 c-17 -11 -32 -23 -32 -27 0 -11 44 -73 52 -73 4 0 22 13
40 29 l33 30 -30 30 -30 31 -33 -20z"/>
<path d="M5302 2597 l-22 -23 28 -27 c36 -34 43 -34 71 4 l24 32 -24 18 c-32
25 -51 24 -77 -4z"/>
<path d="M4915 2575 l-29 -24 113 -118 c63 -65 125 -128 138 -141 l24 -22 40
50 c21 27 39 53 39 58 0 15 -84 72 -100 67 -10 -3 -43 23 -95 75 -44 44 -84
80 -90 80 -5 -1 -23 -12 -40 -25z"/>
<path d="M4315 2511 c-6 -4 -73 -41 -150 -81 -77 -40 -144 -76 -148 -80 -10
-9 23 -80 38 -80 6 0 60 25 119 56 101 53 108 55 121 38 15 -21 34 -14 89 31
l29 23 -34 48 c-37 51 -49 59 -64 45z"/>
<path d="M6186 2435 c-16 -42 -27 -77 -25 -78 43 -24 69 -37 77 -37 8 0 62
135 62 155 0 6 -63 35 -77 35 -5 0 -21 -34 -37 -75z"/>
<path d="M5520 2460 c-17 -22 -30 -44 -28 -49 1 -5 23 -25 48 -45 39 -31 46
-33 60 -21 14 12 29 7 123 -45 59 -33 111 -60 116 -60 9 0 47 78 40 83 -2 2
-33 20 -69 39 -86 48 -145 81 -200 112 -25 14 -48 26 -52 26 -3 0 -21 -18 -38
-40z"/>
<path d="M4720 2433 c-14 -9 -35 -25 -47 -36 l-21 -19 35 -49 c37 -52 43 -55
60 -38 7 7 37 -17 101 -83 l91 -92 31 29 c17 16 29 35 28 41 -3 11 -242 264
-250 264 -2 0 -15 -7 -28 -17z"/>
<path d="M4465 2248 c-22 -16 -49 -36 -59 -44 -19 -13 -19 -14 -1 -54 10 -22
22 -40 26 -40 17 0 128 85 129 98 0 14 -40 72 -49 71 -3 0 -24 -14 -46 -31z"/>
<path d="M5331 2215 c-22 -30 -41 -60 -41 -68 0 -7 14 -26 31 -43 25 -24 32
-26 39 -14 5 8 15 24 23 35 14 18 17 18 34 4 35 -31 42 -31 63 3 11 18 20 38
20 44 0 12 -103 94 -118 94 -5 0 -28 -25 -51 -55z"/>
<path d="M3316 3031 c-83 -16 -141 -32 -144 -40 -5 -16 49 -323 59 -335 4 -5
81 5 179 24 l172 33 -7 36 c-3 20 -17 98 -32 174 l-26 137 -31 -1 c-17 -1 -94
-14 -170 -28z m129 -103 c12 -55 23 -133 19 -137 -7 -7 -146 -31 -153 -26 -12
7 -34 146 -25 155 9 9 91 27 131 29 16 1 24 -6 28 -21z"/>
</g>
</svg>
